<svg width="50" height="50" viewBox="0 0 50 50" fill="none" xmlns="http://www.w3.org/2000/svg">
<rect x="50" y="50" width="50" height="50" rx="25" transform="rotate(180 50 50)" fill="#0077FF"/>
<path d="M11.7929 24.2929C11.4024 24.6834 11.4024 25.3166 11.7929 25.7071L18.1569 32.0711C18.5474 32.4616 19.1805 32.4616 19.5711 32.0711C19.9616 31.6805 19.9616 31.0474 19.5711 30.6569L13.9142 25L19.5711 19.3431C19.9616 18.9526 19.9616 18.3195 19.5711 17.9289C19.1805 17.5384 18.5474 17.5384 18.1569 17.9289L11.7929 24.2929ZM37.5 24H25V26H37.5V24ZM25 24H12.5V26H25V24Z" fill="white"/>
</svg>
