<svg width="50" height="50" viewBox="0 0 50 50" fill="none" xmlns="http://www.w3.org/2000/svg">
<rect x="0.5" y="0.5" width="49" height="49" rx="24.5" fill="white"/>
<rect x="0.5" y="0.5" width="49" height="49" rx="24.5" stroke="#0077FF"/>
<path d="M38.2071 25.7071C38.5976 25.3166 38.5976 24.6834 38.2071 24.2929L31.8431 17.9289C31.4526 17.5384 30.8195 17.5384 30.4289 17.9289C30.0384 18.3195 30.0384 18.9526 30.4289 19.3431L36.0858 25L30.4289 30.6569C30.0384 31.0474 30.0384 31.6805 30.4289 32.0711C30.8195 32.4616 31.4526 32.4616 31.8431 32.0711L38.2071 25.7071ZM12.5 26L25 26L25 24L12.5 24L12.5 26ZM25 26L37.5 26L37.5 24L25 24L25 26Z" fill="#0077FF"/>
</svg>
